<?xml version="1.0" encoding="UTF-8"?>
<svg xmlns="http://www.w3.org/2000/svg" width="435.26" height="135.5" viewBox="0 0 435.26 135.5">
  <title>logo-dark-02</title>
  <polygon points="132 47.43 132 47.43 132 47.43 132 47.43" fill="#1c2958"></polygon>
  <path d="M121.55,50.75l10.37-3.28a67.22,67.22,0,0,1,.17,40.86l-10.22-3.26a57.13,57.13,0,0,1-3.76,9l9.57,5a67.44,67.44,0,0,1-29,28.94l-5-9.59a56.42,56.42,0,0,1-9.08,3.75l3.2,10.11h0a67.29,67.29,0,0,1-40.86.07l3.25-10.21a57.33,57.33,0,0,1-9-3.74l-5,9.57A67.42,67.42,0,0,1,7.31,99l9.6-5a57.56,57.56,0,0,1-3.73-9.14l-10,3.16h0C-.79,74.69-1.24,60.62,3,47.28l10.13,3.27a57.38,57.38,0,0,1,3.75-9l-9.58-5a67.36,67.36,0,0,1,28.93-29l5,9.58a57.38,57.38,0,0,1,9.08-3.76L47.06,3.31l.07,0,0-.09a67.28,67.28,0,0,1,40.81,0L84.66,13.4a57.44,57.44,0,0,1,9,3.74l4.94-9.57A67.32,67.32,0,0,1,127.55,36.5l-9.63,5a40.55,40.55,0,0,1,3.63,9.25ZM117,52.18a51.86,51.86,0,1,0-33.84,65.06A51.86,51.86,0,0,0,117,52.18Z" fill="#0a0f2a"></path>
  <path d="M21.35,81h8.27V49.87H32V81h2.36V77.8h4.22l.62-22.42h-.9V50.66h1l.26-9.44H38.28V37.68h1.39l.06-2.76h4.62l.06,2.76h1v3.54h-.85l.27,9.44h1v4.72H44.9l.62,22.42h2.6l.62-22.42h-.63V50.66h.75l.27-9.44h-1V37.68h1.12l.06-2.76h4.63L54,37.68h1.21v3.54H54.08l.26,9.44h1.24v4.72H54.46l.22,7.08h5.23v-1a3.74,3.74,0,0,1,3.72-3.85,3,3,0,0,1,2.18.77V54.84a5,5,0,0,1,10-.64h5.62c.31-3.54.51-7.08.51-11.41H92c0,4.33.19,7.87.51,11.41h13.48V81h7.9a48.12,48.12,0,0,1-92.49,0Zm81.44-15.74H94c1,5.51,2.09,9.44,2.79,12.59h4.08V81h2ZM92.71,56.56c.24,2.36.52,4.32.83,5.9h9.25v-5.9ZM76,62.46h4.27c.3-1.58.59-3.54.83-5.9H76ZM76,77.8h1.07c.69-3.15,1.8-7.08,2.78-12.59H76ZM54.75,65.21l.33,12.59h4.83V65.21Z" fill="#f1b209"></path>
  <path d="M163.36,93.93V38.45h10.78V93.93Z" fill="#0a0f2a"></path>
  <path d="M222.74,93.93H212.27V71.29q0-4.86-1.72-7.09A5.67,5.67,0,0,0,205.78,62,9.52,9.52,0,0,0,201.53,63,13,13,0,0,0,197.66,66a11.31,11.31,0,0,0-2.5,4.31V93.93H184.69V53.38h9.45v7.56a15.14,15.14,0,0,1,4-4.44,17.8,17.8,0,0,1,5.58-2.78,22.58,22.58,0,0,1,6.68-1,13,13,0,0,1,6.29,1.35,9.37,9.37,0,0,1,3.75,3.63,16.06,16.06,0,0,1,1.8,5.14,33,33,0,0,1,.51,5.79Z" fill="#0a0f2a"></path>
  <path d="M229.38,73.69a23.7,23.7,0,0,1,2.34-10.62,19.11,19.11,0,0,1,6.49-7.54,16.58,16.58,0,0,1,9.45-2.78A15.3,15.3,0,0,1,255.83,55a16.31,16.31,0,0,1,5.66,5.66V36.89H272V82.21a3.83,3.83,0,0,0,.55,2.34,2.62,2.62,0,0,0,1.87.86v8.52a24,24,0,0,1-4.45.54,7.45,7.45,0,0,1-4.65-1.4,5.14,5.14,0,0,1-2.07-3.68l-.16-2.57a15.29,15.29,0,0,1-6.13,5.86,17.21,17.21,0,0,1-8.09,2,18.37,18.37,0,0,1-7.77-1.63,18.8,18.8,0,0,1-6.17-4.48,20.49,20.49,0,0,1-4.07-6.68A23.15,23.15,0,0,1,229.38,73.69Zm32.11,5.36V69.47a10.75,10.75,0,0,0-2.5-4,13.77,13.77,0,0,0-3.83-2.8,9.63,9.63,0,0,0-8.59,0,11,11,0,0,0-3.4,2.69A11.44,11.44,0,0,0,241,69.25a14.78,14.78,0,0,0-.74,4.67,13,13,0,0,0,.82,4.64,10.93,10.93,0,0,0,2.38,3.79,11.45,11.45,0,0,0,3.64,2.53,11,11,0,0,0,4.49.92,9.74,9.74,0,0,0,3-.5,12.56,12.56,0,0,0,2.89-1.38,10.72,10.72,0,0,0,2.42-2.14A9.59,9.59,0,0,0,261.49,79.05Z" fill="#0a0f2a"></path>
  <path d="M281.88,78.76V53.38h10.47V76.46q0,4.64,1.72,7a5.92,5.92,0,0,0,5.08,2.35,10.79,10.79,0,0,0,4-.8,11.76,11.76,0,0,0,3.68-2.41,14.08,14.08,0,0,0,2.85-4.06V53.38h10.47V82.25a3.59,3.59,0,0,0,.58,2.31,2.83,2.83,0,0,0,1.92.85v8.52c-1.05.15-1.92.27-2.62.35a16.82,16.82,0,0,1-1.91.11,7.64,7.64,0,0,1-4.58-1.27,5.06,5.06,0,0,1-2.07-3.52l-.23-3.25a17.92,17.92,0,0,1-7,6.23,21,21,0,0,1-9.46,2.13q-6.33,0-9.61-4.07C283,87.94,281.88,84,281.88,78.76Z" fill="#0a0f2a"></path>
  <path d="M331.26,101.9c.94.2,1.81.39,2.62.54a11,11,0,0,0,2.07.24,4,4,0,0,0,2.46-.74,7.5,7.5,0,0,0,1.92-2.62A35.86,35.86,0,0,0,342.28,94L326.11,53.38H337l11,30,9.69-30h10l-17.19,48.73a14.81,14.81,0,0,1-2.85,4.93,13.71,13.71,0,0,1-4.76,3.5,15.49,15.49,0,0,1-6.37,1.28,16.11,16.11,0,0,1-2.5-.2,18.91,18.91,0,0,1-2.74-.66Z" fill="#0a0f2a"></path>
  <path d="M387.44,94.71a29.4,29.4,0,0,1-10-1.72,22.61,22.61,0,0,1-8.21-5.08l3.76-6.8a28,28,0,0,0,7.22,4.38,18.71,18.71,0,0,0,6.84,1.4,9.79,9.79,0,0,0,4.88-1,3.42,3.42,0,0,0,1.84-3.17,2.74,2.74,0,0,0-1-2.27A9.17,9.17,0,0,0,389.82,79c-1.28-.41-2.82-.87-4.65-1.39a70.63,70.63,0,0,1-7.58-2.85A11.09,11.09,0,0,1,373,71.22a9.12,9.12,0,0,1-1.52-5.44,11.55,11.55,0,0,1,2.07-6.9,13.6,13.6,0,0,1,5.78-4.51,21.66,21.66,0,0,1,8.71-1.62,25,25,0,0,1,8.29,1.37,19.76,19.76,0,0,1,7.11,4.41l-4.22,6.64a25.52,25.52,0,0,0-5.94-3.55,15.08,15.08,0,0,0-5.7-1.13,11.79,11.79,0,0,0-3.09.38,5.18,5.18,0,0,0-2.35,1.27,3.38,3.38,0,0,0-.89,2.5,3,3,0,0,0,.82,2.27,7,7,0,0,0,2.5,1.42c1.12.41,2.48.87,4.1,1.38A67.86,67.86,0,0,1,397,72.56a13.18,13.18,0,0,1,5.12,3.57,9,9,0,0,1,1.72,5.81,11.11,11.11,0,0,1-4.46,9.38Q394.94,94.71,387.44,94.71Z" fill="#0a0f2a"></path>
  <path d="M435.26,91.89c-.89.37-2,.79-3.21,1.25a26.21,26.21,0,0,1-4,1.14,22.65,22.65,0,0,1-4.34.43,13.69,13.69,0,0,1-5.31-1,8.32,8.32,0,0,1-3.87-3.21,10.39,10.39,0,0,1-1.44-5.77V61.42h-5.4v-8h5.4V40.09h10.47V53.38h8.59v8h-8.59V81.17a3.93,3.93,0,0,0,1.17,3,4.07,4.07,0,0,0,2.73.93,9.55,9.55,0,0,0,3.21-.55c1-.36,1.87-.68,2.5-.94Z" fill="#0a0f2a"></path>
</svg>
